<svg width="32" height="32" viewBox="0 0 32 32" fill="none" xmlns="http://www.w3.org/2000/svg">
  <rect width="32" height="32" fill="black"/>
  <path fill-rule="evenodd" clip-rule="evenodd" d="M9.03443 14.2721V15.3298C9.03443 15.4971 8.96476 15.6578 8.84128 15.7813L8.34051 16.2821C8.71021 16.2545 9.08529 16.3324 9.41306 16.4907C9.77658 16.6676 10.2225 16.7204 10.6225 16.6157L10.6835 16.6001L9.84128 15.7813C9.71781 15.6578 9.64814 15.4971 9.64814 15.3298V14.2721C9.54589 14.2654 9.44287 14.262 9.33929 14.262C9.2357 14.262 9.13268 14.2654 9.03443 14.2721ZM9.98243 14.3025C10.0613 14.3026 10.1293 14.2422 10.1393 14.1603C10.15 14.0756 10.0888 13.9957 10.0021 13.9845C9.94709 13.9776 9.89175 13.9714 9.83622 13.9659C9.67654 13.9505 9.51273 13.9426 9.33929 13.9426C9.16584 13.9426 9.00203 13.9505 8.84235 13.9659C8.78682 13.9714 8.73148 13.9776 8.67647 13.9845C8.58977 13.9957 8.52856 14.0756 8.53926 14.1603C8.54926 14.2422 8.61726 14.3026 8.69614 14.3025V15.3298C8.69614 15.4151 8.66113 15.4974 8.59786 15.5607L7.30008 16.8585C6.95694 17.2016 7.11182 17.8189 7.61138 17.9075C8.17747 18.0084 8.75725 18.0614 9.33929 18.0614C9.92132 18.0614 10.5011 18.0084 11.0672 17.9075C11.5668 17.8189 11.7216 17.2016 11.3785 16.8585L10.0807 15.5607C10.0174 15.4974 9.98243 15.4151 9.98243 15.3298V14.3025Z" fill="#51F6BE"/>
  <path d="M12.6898 17.8224L13.4648 16.4895L12.6898 15.0352H13.3586L13.9141 16.0248L13.9609 16.1895H14.0312L14.0781 16.0248L14.6445 15.0352H15.3242L14.5273 16.4467L15.3242 17.8224H14.6016L14.0898 16.9248L14.043 16.76H13.9727L13.9258 16.9248L13.4023 17.8224H12.6898Z" fill="white"/>
  <path d="M17.0898 17.9053C16.8398 17.9053 16.6211 17.8585 16.4336 17.7647C16.2461 17.671 16.1016 17.5342 16 17.3545C15.9062 17.1748 15.8594 16.9639 15.8594 16.7217V16.2803H16.5391V16.7139C16.5391 16.8935 16.5859 17.0381 16.6797 17.1475C16.7812 17.2491 16.918 17.2999 17.0898 17.2999C17.2695 17.2999 17.4062 17.2491 17.5 17.1475C17.6016 17.0381 17.6523 16.8935 17.6523 16.7139V14.8467H16.1719V14.1748H18.3359V16.7217C18.3359 16.9639 18.2852 17.1748 18.1836 17.3545C18.082 17.5342 17.9336 17.671 17.7383 17.7647C17.5508 17.8585 17.3398 17.9053 17.0898 17.9053ZM20.9023 16.1084V16.5811L20.1836 16.6904C20.0742 16.7061 19.9883 16.7451 19.9258 16.8076C19.8711 16.8701 19.8438 16.9483 19.8438 17.042C19.8438 17.1357 19.875 17.2139 19.9375 17.2764C20 17.3389 20.0898 17.3701 20.207 17.3701C20.3242 17.3701 20.4336 17.3467 20.5352 17.2999C20.6367 17.2451 20.7188 17.1709 20.7812 17.0771C20.8438 16.9756 20.875 16.8623 20.875 16.7373V16.0811C20.875 15.9092 20.8281 15.7803 20.7344 15.6943C20.6406 15.6084 20.5039 15.5654 20.3242 15.5654C20.207 15.5654 20.1016 15.5849 20.0078 15.624C19.9141 15.6631 19.8398 15.7217 19.7812 15.7999C19.7305 15.8779 19.6914 15.9717 19.6719 16.0811H19.0078C19.0273 15.8467 19.0938 15.6475 19.207 15.4834C19.3203 15.3154 19.4766 15.1865 19.6758 15.0967C19.8828 15.0068 20.1133 14.9619 20.3672 14.9619C20.7422 14.9619 21.0273 15.0498 21.2227 15.2256C21.4258 15.4014 21.5273 15.6553 21.5273 15.9873V17.8224H20.875V17.5498H20.7109C20.6484 17.6592 20.5625 17.7451 20.4531 17.8076C20.3438 17.8701 20.207 17.9014 20.043 17.9014C19.8789 17.9014 19.7344 17.8662 19.6094 17.7959C19.4844 17.7256 19.3867 17.6279 19.3164 17.5029C19.2539 17.3779 19.2227 17.2334 19.2227 17.0693C19.2227 16.8271 19.2969 16.6318 19.4453 16.4834C19.5938 16.3271 19.8086 16.2256 20.0898 16.1787L20.9023 16.1084ZM22.3359 15.0352H23.4727V15.2764H23.6367C23.6914 15.1709 23.7695 15.0928 23.8711 15.0381C23.9805 14.9834 24.0977 14.956 24.2227 14.956C24.4492 14.956 24.6211 15.0381 24.7383 15.2022C24.8633 15.3623 24.9258 15.5967 24.9258 15.9053V16.3389H24.2461V16.0342C24.2461 15.7529 24.1406 15.6123 23.9297 15.6123C23.7969 15.6123 23.6992 15.6748 23.6367 15.7999C23.5742 15.9209 23.543 16.1045 23.543 16.3506V17.2139H24.3555V17.8224H22.4023V17.2139H22.8867V15.6436H22.3359V15.0352Z" fill="#51F6BE"/>
</svg>