<svg width="30" height="30" viewBox="0 0 30 30" fill="none" xmlns="http://www.w3.org/2000/svg">
<path d="M23.969 5.71196C22.2963 4.92936 20.5078 4.3606 18.638 4.03674C18.4084 4.45192 18.1401 5.01034 17.9551 5.45456C15.9675 5.15563 13.9981 5.15563 12.047 5.45456C11.862 5.01034 11.5876 4.45192 11.356 4.03674C9.48411 4.3606 7.69356 4.93145 6.02089 5.71611C2.6471 10.8143 1.73252 15.786 2.18981 20.687C4.42748 22.358 6.59606 23.3731 8.72804 24.0374C9.25443 23.3129 9.72391 22.5428 10.1284 21.7311C9.35808 21.4384 8.62032 21.0772 7.92323 20.6579C8.10816 20.5209 8.28906 20.3777 8.46383 20.2303C12.7156 22.2189 17.3353 22.2189 21.5362 20.2303C21.7131 20.3777 21.8939 20.5209 22.0768 20.6579C21.3777 21.0793 20.6379 21.4405 19.8676 21.7332C20.2721 22.5428 20.7395 23.315 21.268 24.0394C23.402 23.3752 25.5726 22.3601 27.8103 20.687C28.3468 15.0054 26.8937 10.0795 23.969 5.71196ZM10.7076 17.6729C9.43126 17.6729 8.38456 16.4813 8.38456 15.0303C8.38456 13.5793 9.40891 12.3857 10.7076 12.3857C12.0063 12.3857 13.053 13.5772 13.0306 15.0303C13.0327 16.4813 12.0063 17.6729 10.7076 17.6729ZM19.2925 17.6729C18.0161 17.6729 16.9694 16.4813 16.9694 15.0303C16.9694 13.5793 17.9937 12.3857 19.2925 12.3857C20.5912 12.3857 21.6379 13.5772 21.6155 15.0303C21.6155 16.4813 20.5912 17.6729 19.2925 17.6729Z" fill="white"/>
</svg>
