<svg width="29" height="29" viewBox="0 0 29 29" fill="none" xmlns="http://www.w3.org/2000/svg">
<path d="M25.3753 14.7658C25.3753 8.13208 20.2278 3.625 14.5003 3.625C8.83324 3.625 3.62533 8.03542 3.62533 14.8383C2.90033 15.2492 2.41699 16.0225 2.41699 16.9167V19.3333C2.41699 20.6625 3.50449 21.75 4.83366 21.75H6.04199V14.3792C6.04199 9.70292 9.82408 5.92083 14.5003 5.92083C19.1766 5.92083 22.9587 9.70292 22.9587 14.3792V22.9583H13.292V25.375H22.9587C24.2878 25.375 25.3753 24.2875 25.3753 22.9583V21.4842C26.0882 21.1096 26.5837 20.3725 26.5837 19.5025V16.7233C26.5837 15.8775 26.0882 15.1404 25.3753 14.7658V14.7658Z" fill="white"/>
<path d="M10.8753 16.9167C11.5427 16.9167 12.0837 16.3757 12.0837 15.7083C12.0837 15.041 11.5427 14.5 10.8753 14.5C10.208 14.5 9.66699 15.041 9.66699 15.7083C9.66699 16.3757 10.208 16.9167 10.8753 16.9167Z" fill="white"/>
<path d="M18.1253 16.9167C18.7927 16.9167 19.3337 16.3757 19.3337 15.7083C19.3337 15.041 18.7927 14.5 18.1253 14.5C17.458 14.5 16.917 15.041 16.917 15.7083C16.917 16.3757 17.458 16.9167 18.1253 16.9167Z" fill="white"/>
<path d="M21.7503 13.3279C21.1703 9.88417 18.1736 7.25 14.5607 7.25C10.8995 7.25 6.96031 10.2829 7.27448 15.0438C10.2591 13.8233 12.5066 11.165 13.147 7.92667C14.7299 11.1046 17.9803 13.2917 21.7503 13.3279Z" fill="white"/>
</svg>
